<svg id="HSG_Logo_DE_RGB" xmlns="http://www.w3.org/2000/svg" width="204.189" height="43.817" viewBox="0 0 204.189 43.817">
  <path id="Pfad_217" data-name="Pfad 217" d="M158.576,67.1a2.852,2.852,0,0,1,1.893.846l-.911,1.481a2.629,2.629,0,0,0-1.424-.692,2.415,2.415,0,0,0-2.1,2.66v4.531h-1.713V67.272h1.713v1.985h.039c.876-1.52,1.7-2.156,2.506-2.156m-37.245-4.32h-1.889v7.655a3.836,3.836,0,0,1-.828,2.87,4.312,4.312,0,0,1-3.067,1.06,3.847,3.847,0,0,1-2.835-1.117c-.6-.6-.789-1.214-.789-2.7V62.781H110v8.172c0,3.584,2.7,5.149,5.473,5.149,3.913,0,5.841-2.121,5.841-5.341Zm3.76,4.491h-1.718v8.654h1.718v-6.2a2.828,2.828,0,0,1,2.156-1.253c1.043,0,1.7.828,1.7,2.1v5.359h1.718V70.589c0-2.371-1.315-3.505-2.949-3.505a3.348,3.348,0,0,0-2.585,1.314h-.035Zm8.671-1.6a1.021,1.021,0,1,0-1.021-1.021,1.021,1.021,0,0,0,1.021,1.021m.85,1.6h-1.718v8.654h1.718Zm7.686,0-2.27,5.319-2.335-5.319h-1.884l3.913,8.829h.574l3.816-8.829Zm9.868,7.808a5.63,5.63,0,0,1-3.448,1.021c-2.7,0-4.2-2.217-4.2-4.605,0-2.629,1.661-4.382,4.049-4.382,2.292,0,3.76,1.56,3.76,4.759h-6.091a2.715,2.715,0,0,0,2.909,2.6,5.486,5.486,0,0,0,3.023-1.043Zm-1.538-4.36a1.985,1.985,0,0,0-2.024-2.138,2.24,2.24,0,0,0-2.331,2.138ZM166.4,67.811a5.372,5.372,0,0,0-2.546-.71c-1.753,0-2.852.876-2.852,2.349,0,2.335,4.049,2.966,4.049,4.163,0,.618-.578.946-1.275.986a5.183,5.183,0,0,1-2.831-1.139v1.853a6.043,6.043,0,0,0,3.006.789,2.6,2.6,0,0,0,2.852-2.546c0-.876-.521-1.485-1.945-2.427-1.525-.876-2.1-1.35-2.1-1.753,0-.464.438-.789,1.139-.789a4.851,4.851,0,0,1,2.506.9Zm3.19-2.138a1.021,1.021,0,1,0-1.021-1.021,1.021,1.021,0,0,0,1.021,1.021m.846,1.6h-1.722v8.654h1.713ZM175.1,65.48l-3.221,3.142v.193h1.5V73.38A2.559,2.559,0,0,0,176.2,76.1a5.113,5.113,0,0,0,2.081-.578v-1.6a3.685,3.685,0,0,1-1.945.64,1.192,1.192,0,0,1-1.231-1.315v-4.43h2.739V67.272H175.1Zm11.6,9.947a2.752,2.752,0,0,1-1.661.675c-.749,0-1.157-.272-1.315-.876a3.7,3.7,0,0,1-2.331.876,2.09,2.09,0,0,1-2.121-2.121c0-1.713,1.564-2.235,2.949-2.739l1.525-.539V70.23c0-1.078-.521-1.52-1.56-1.52a3.584,3.584,0,0,0-2.739,1.424V68.276a3.532,3.532,0,0,1,2.87-1.174c1.753,0,3.142.876,3.142,2.852v4.452c0,.324.114.438.329.438a2.059,2.059,0,0,0,.907-.464Zm-2.392-11.6a.892.892,0,0,1,0,1.783.907.907,0,0,1-.907-.907.876.876,0,0,1,.907-.876m-3.584,0a.892.892,0,0,1,0,1.783.907.907,0,0,1-.907-.907.876.876,0,0,1,.907-.876m3.028,7.826c-1.468.5-2.739,1-2.739,2.02a1.179,1.179,0,0,0,1.236,1.214,2.191,2.191,0,0,0,1.5-.71Zm6.38-6.169-3.221,3.142v.193h1.516V73.38a2.559,2.559,0,0,0,2.813,2.721,5.113,5.113,0,0,0,2.081-.578v-1.6a3.685,3.685,0,0,1-1.945.64,1.192,1.192,0,0,1-1.231-1.315v-4.43h2.734V67.272h-2.734Zm16.1-1.945a5.258,5.258,0,0,0-2.931-.925c-2.41,0-3.992,1.367-3.992,3.505,0,3.606,5.7,3.913,5.7,6.634,0,.732-.675,1.656-2.138,1.656a4.435,4.435,0,0,1-3.47-1.91v2.388a5.784,5.784,0,0,0,3.681,1.218,3.505,3.505,0,0,0,3.681-3.567c0-4.185-5.7-4.145-5.7-6.669,0-.925.876-1.56,2.081-1.56a4.417,4.417,0,0,1,3.067,1.367Zm4.355,1.945-3.221,3.142v.193h1.5V73.38a2.56,2.56,0,0,0,2.817,2.721,5.148,5.148,0,0,0,2.081-.578v-1.6a3.711,3.711,0,0,1-1.95.64,1.192,1.192,0,0,1-1.231-1.315v-4.43h2.734V67.272h-2.734Zm6.551,9.465a1.157,1.157,0,1,0-1.157,1.157,1.157,1.157,0,0,0,1.157-1.157m13.934-5.495h-4.417v1.7h2.524v2.7a9.246,9.246,0,0,1-2.853.521c-3.12,0-5.319-2.064-5.319-5a4.969,4.969,0,0,1,5.07-5.026,9.819,9.819,0,0,1,4.724,1.288V63.727a10.579,10.579,0,0,0-4.684-1.117,6.806,6.806,0,0,0-7.055,6.822c0,3.873,2.966,6.669,7.011,6.669a11.5,11.5,0,0,0,5.008-1.082Zm9.311,5.977a2.742,2.742,0,0,1-1.656.675c-.754,0-1.157-.272-1.315-.876a3.7,3.7,0,0,1-2.331.876,2.086,2.086,0,0,1-2.116-2.121c0-1.713,1.56-2.235,2.945-2.739l1.525-.539V70.23c0-1.078-.521-1.52-1.56-1.52a3.584,3.584,0,0,0-2.752,1.433V68.276A3.536,3.536,0,0,1,236,67.1c1.753,0,3.142.876,3.142,2.853v4.452c0,.324.118.438.329.438a2.06,2.06,0,0,0,.907-.464Zm-2.949-3.777c-1.468.5-2.739,1-2.739,2.02a1.179,1.179,0,0,0,1.236,1.214,2.191,2.191,0,0,0,1.5-.71Zm4.312,4.277h1.718V62.781H241.75Zm4.027,0h1.718V62.781h-1.718Zm11.011-.846A5.631,5.631,0,0,1,253.34,76.1c-2.7,0-4.2-2.217-4.2-4.605,0-2.629,1.656-4.382,4.049-4.382,2.292,0,3.76,1.56,3.76,4.759h-6.091a2.713,2.713,0,0,0,2.91,2.6,5.5,5.5,0,0,0,3.023-1.043Zm-1.538-4.36a1.986,1.986,0,0,0-2.029-2.138,2.243,2.243,0,0,0-2.331,2.138Zm5.157-3.448H258.69v8.654h1.718v-6.2a2.835,2.835,0,0,1,2.16-1.253c1.038,0,1.7.828,1.7,2.1v5.359h1.726V70.589c0-2.371-1.315-3.505-2.949-3.505A3.334,3.334,0,0,0,260.46,68.4h-.039Z" transform="translate(-61.801 -35.176)" fill="#fff"/>
  <path id="Pfad_218" data-name="Pfad 218" d="M39.436,30.672,23.924,25.028a1.753,1.753,0,0,1-1.091-1.187l-.263-.96a1.753,1.753,0,0,1,1.389-2.191l15.476-2.725ZM17.965,24.814l-1.052-1.152a1.753,1.753,0,0,0-2.191-.346L3.549,29.77,5.5,40.847l4.382.386L18.167,26.86A1.753,1.753,0,0,0,17.965,24.814ZM15.735,12.05a1.753,1.753,0,0,0-1.494-1.166L0,9.64,3.089,27.167,17.347,18.92a.876.876,0,0,0,.386-1.038.846.846,0,0,0-.517-.521,2.848,2.848,0,0,1-1.591-3.944,1.823,1.823,0,0,0,.11-1.38M39.436,0,18.285,9.863a.933.933,0,0,0-.473,1.192l.088.232a.968.968,0,0,0,.762.583,2.848,2.848,0,0,1,1.7,4.636.719.719,0,0,0-.118.71.7.7,0,0,0,.876.4l18.311-6.66ZM24.59,28.6a3.505,3.505,0,0,0-5.052,1.126L12.786,41.486l26.65,2.331V39Z" fill="#fff"/>
</svg>
