<?xml version="1.0" encoding="utf-8"?>
<!-- Generator: Adobe Illustrator 28.0.0, SVG Export Plug-In . SVG Version: 6.00 Build 0)  -->
<svg version="1.1" id="Layer_1" xmlns="http://www.w3.org/2000/svg" xmlns:xlink="http://www.w3.org/1999/xlink" x="0px" y="0px"
	 viewBox="0 0 122.9 103.4" style="enable-background:new 0 0 122.9 103.4;" xml:space="preserve">
<style type="text/css">
	.st0{fill:#00A6FB;}
	.st1{fill:#FFFFFF;}
</style>
<g id="Send_00000170277426909091956130000000342689860033650346_" transform="translate(0)">
	<g id="Ellipse_1-2_00000082336177948504715510000013257617304668936585_">
		<ellipse class="st0" cx="58.2" cy="48" rx="47.1" ry="47"/>
	</g>
	<g id="Polygon_1-2_00000077324342991321983740000010279839555884110765_">
		<path class="st0" d="M5.4,102.5l40.5-16.3L25.8,64L5.4,102.5z"/>
	</g>
</g>
<g>
	<g>
		<path class="st1" d="M73.2,64.6l-32.6-0.1c-1.1,0-1.9-0.9-1.9-1.9c0-1.3-0.4-13-12.9-27.9c-0.4-0.4-0.5-1-0.4-1.5s0.4-1.1,0.9-1.3
			c5.4-3.2,14,2,20.9,7.6c1.5-5.1,5.9-14.6,14.6-17.8c0.1,0,0.1,0,0.2-0.1c1.3-0.3,2.4-0.1,3.2,0.7c1.3,1.3,0.9,3.2,0.4,5.9
			c-0.7,3-1.4,6.9-0.3,10.9c2.7-3.5,7.3-8.1,13.3-9.1c3.8-0.6,7.4,0.4,10.9,3c0.6,0.5,0.9,1.2,0.8,1.8c-0.1,0.7-0.7,1.3-1.3,1.5
			c-0.6,0.2-13.3,4.2-13.5,16.2c-0.1,6.5-0.1,9.3-0.1,10.2C75.3,63.8,74.4,64.6,73.2,64.6z M42.5,60.7l28.9,0.1c0-1.6,0-4.2,0.1-8.4
			c0.2-10.2,7.7-15.7,12.4-18.2c-1.5-0.6-3.2-0.8-4.8-0.5c-4,0.7-8.3,3.9-11.9,9c-0.1,0.1-0.1,0.2-0.2,0.3c-0.7,0.7-1.6,1-2.5,0.8
			c-1-0.2-1.7-0.8-2.2-1.5c-2.6-5.7-1.3-11.3-0.6-14.9c0.1-0.5,0.2-1.1,0.3-1.5c-8.3,3.9-11.6,15.5-11.8,17.2
			c-0.1,0.8-0.6,1.4-1.3,1.7c-0.8,0.3-1.6,0.2-2.2-0.4c-6.6-5.6-12.4-9.1-16-9.4C40,46.6,42,56.5,42.5,60.7z M46.5,42.6L46.5,42.6
			L46.5,42.6z M46.5,42.6L46.5,42.6L46.5,42.6z M46.5,42.6L46.5,42.6L46.5,42.6z M49.4,41.3L49.4,41.3L49.4,41.3z M49.4,41.3
			L49.4,41.3L49.4,41.3z M49.4,41.3L49.4,41.3L49.4,41.3z"/>
	</g>
	<g>
		<circle class="st1" cx="65.1" cy="20.7" r="4.8"/>
	</g>
	<g>
		<circle class="st1" cx="25.5" cy="31.7" r="4.8"/>
	</g>
	<g>
		<circle class="st1" cx="91.7" cy="33.9" r="4.8"/>
	</g>
	<g>
		<path class="st1" d="M73.5,77.5H40.7c-1.1,0-1.9-0.9-1.9-1.9V69c0-1.1,0.9-1.9,1.9-1.9h32.8c1.1,0,1.9,0.9,1.9,1.9l0.1,6.6
			c0,0.5-0.2,1.1-0.6,1.3C74.5,77.3,74,77.5,73.5,77.5z M42.6,73.7h29v-2.8h-29V73.7z"/>
	</g>
</g>
</svg>
