<?xml version="1.0" encoding="utf-8"?>
<!-- Generator: Adobe Illustrator 28.0.0, SVG Export Plug-In . SVG Version: 6.00 Build 0)  -->
<svg version="1.1" id="Ebene_1" xmlns="http://www.w3.org/2000/svg" xmlns:xlink="http://www.w3.org/1999/xlink" x="0px" y="0px"
	 viewBox="0 0 1366 768" style="enable-background:new 0 0 1366 768;" xml:space="preserve">
<style type="text/css">
	.st0{fill:#00A6FB;}
	.st1{fill:#FFFFFF;}
	.st2{enable-background:new    ;}
	.st3{fill:#293033;stroke:#293033;stroke-width:2;stroke-miterlimit:10;}
</style>
<g id="Gruppe_2" transform="translate(-100 -97.636)">
	<circle id="Ellipse_1" class="st0" cx="353.6" cy="401.8" r="156.3"/>
	<path id="Polygon_1" class="st0" d="M180.1,581.6l67.3-127.4l66.4,73.7L180.1,581.6z"/>
</g>
<g>
	<g>
		<path class="st1" d="M226.2,264.9c0,13-7.4,18.3-18.5,18.3c-10.5,0-16.2-5.9-16.2-16.8c0-11.1,7.4-16.8,17.2-16.8
			C219.9,249.6,226.2,255.3,226.2,264.9z M226.2,333.8c0,13-7.4,18.3-18.5,18.3c-10.5,0-16.2-5.9-16.2-16.6c0-11.1,7.4-17,17.2-17
			C219.9,318.5,226.2,324.3,226.2,333.8z"/>
		<path class="st1" d="M252.3,394.8c-6.9-3.2-9.3-12-4.8-18.1c11.9-16,19.7-37.8,19.7-82.6c0-40.1-7.4-57.4-19.7-73.3
			c-4.7-6-2.8-14.8,4-18.3l0.3-0.2c5-2.6,11-1.4,14.7,2.7c15.9,17.9,28.2,42.6,28.2,89c0,53.9-12.4,79.6-28.2,97.7
			C263,395.9,257.2,397.1,252.3,394.8L252.3,394.8z"/>
	</g>
</g>
<g id="Gruppe_1" transform="translate(-17.067 -87)">
	<circle id="Ellipse_1-2" class="st0" cx="516.3" cy="471.9" r="205.5"/>
	<path id="Polygon_1-2" class="st0" d="M746.5,710.4l-176.6-70.9l87.7-97.4L746.5,710.4z"/>
</g>
<g class="st2">
	<path class="st1" d="M420.2,410.3c-6.3,0-11.7-2.3-16.2-6.8s-6.7-10-6.7-16.3s2.2-11.8,6.7-16.4s9.9-6.9,16.2-6.9
		c6.5,0,12,2.3,16.5,6.9s6.8,10.1,6.8,16.4s-2.3,11.8-6.8,16.3C432.2,408.1,426.7,410.3,420.2,410.3z"/>
	<path class="st1" d="M511.9,410.3c-6.3,0-11.7-2.3-16.2-6.8s-6.7-10-6.7-16.3s2.2-11.8,6.7-16.4s9.9-6.9,16.2-6.9
		c6.5,0,12,2.3,16.5,6.9s6.8,10.1,6.8,16.4s-2.3,11.8-6.8,16.3C523.9,408.1,518.4,410.3,511.9,410.3z"/>
	<path class="st1" d="M603.6,410.3c-6.3,0-11.7-2.3-16.2-6.8s-6.7-10-6.7-16.3s2.2-11.8,6.7-16.4s9.9-6.9,16.2-6.9
		c6.5,0,12,2.3,16.5,6.9s6.8,10.1,6.8,16.4s-2.3,11.8-6.8,16.3C615.5,408.1,610,410.3,603.6,410.3z"/>
</g>
<g class="st2">
	<path class="st3" d="M827.9,337.8h76.7v25.4h-107V179.5h30.3V337.8z"/>
	<path class="st3" d="M1036,357.3c-12.2,5.1-32.7,9.7-51.9,9.7c-42.1,0-64.6-23.8-64.6-70.8c0-44.9,21.9-72.7,68.4-72.7
		c29.2,0,50.8,13.5,50.8,40.5c0,32.4-16.5,43.2-61.1,43.2c-9.5,0-20.3-0.5-29.7-1.4c2.7,26.5,15.7,37.3,37.8,37.3
		c15.1,0,29.7-3.5,44.3-8.6L1036,357.3z M947.6,284c7.3,0.5,18.1,1.1,29.5,1.1c27,0,34.6-4.9,34.6-20.5c0-12.4-10.8-17.8-24.6-17.8
		C962,246.8,950.1,257.6,947.6,284z"/>
	<path class="st3" d="M1142.4,250.5h-34.6v75.1c0,12.4,5.1,15.7,14.3,15.7c8.6,0,15.9-2.2,22.2-3.8l4.1,23.8
		c-10.8,3.5-22.2,5.7-33.5,5.7c-19.7,0-35.9-5.9-35.9-38.9v-77.5h-27v-23h29.2v-41.1h26.7v41.1h34.6L1142.4,250.5L1142.4,250.5z"/>
	<path class="st3" d="M1254,251.1c-13-2.2-26.5-4.6-40.8-4.6c-15.4,0-22.4,5.9-22.4,15.1s5.9,12.7,31.3,20
		c29.2,8.4,41.1,20,41.1,40.5c0,22.4-13.5,44.6-52.7,44.6c-19.5,0-37.6-3.5-51.6-8.6l5.4-23.8c12.4,4.1,28.9,8.6,44,8.6
		c15.9,0,25.4-7,25.4-19.7c0-10.5-8.9-13.5-32.4-20.3c-30-8.6-39.2-20.8-39.2-41.6c0-21.1,16.2-37.8,50.5-37.8
		c17,0,33.2,2.7,45.7,5.1L1254,251.1z"/>
</g>
<g class="st2">
	<path class="st3" d="M827.9,337.8h76.7v25.4h-107V179.5h30.3V337.8z"/>
	<path class="st3" d="M1036,357.3c-12.2,5.1-32.7,9.7-51.9,9.7c-42.1,0-64.6-23.8-64.6-70.8c0-44.9,21.9-72.7,68.4-72.7
		c29.2,0,50.8,13.5,50.8,40.5c0,32.4-16.5,43.2-61.1,43.2c-9.5,0-20.3-0.5-29.7-1.4c2.7,26.5,15.7,37.3,37.8,37.3
		c15.1,0,29.7-3.5,44.3-8.6L1036,357.3z M947.6,284c7.3,0.5,18.1,1.1,29.5,1.1c27,0,34.6-4.9,34.6-20.5c0-12.4-10.8-17.8-24.6-17.8
		C962,246.8,950.1,257.6,947.6,284z"/>
	<path class="st3" d="M1142.4,250.5h-34.6v75.1c0,12.4,5.1,15.7,14.3,15.7c8.6,0,15.9-2.2,22.2-3.8l4.1,23.8
		c-10.8,3.5-22.2,5.7-33.5,5.7c-19.7,0-35.9-5.9-35.9-38.9v-77.5h-27v-23h29.2v-41.1h26.7v41.1h34.6L1142.4,250.5L1142.4,250.5z"/>
	<path class="st3" d="M1254,251.1c-13-2.2-26.5-4.6-40.8-4.6c-15.4,0-22.4,5.9-22.4,15.1s5.9,12.7,31.3,20
		c29.2,8.4,41.1,20,41.1,40.5c0,22.4-13.5,44.6-52.7,44.6c-19.5,0-37.6-3.5-51.6-8.6l5.4-23.8c12.4,4.1,28.9,8.6,44,8.6
		c15.9,0,25.4-7,25.4-19.7c0-10.5-8.9-13.5-32.4-20.3c-30-8.6-39.2-20.8-39.2-41.6c0-21.1,16.2-37.8,50.5-37.8
		c17,0,33.2,2.7,45.7,5.1L1254,251.1z"/>
</g>
<g class="st2">
	<path class="st3" d="M911.2,467.8c-15.4-5.9-29.7-9.5-46.5-9.5c-30,0-49.2,18.6-49.2,63.8c0,50.3,17.3,73.2,48.1,73.2
		c17.6,0,34.3-6.8,48.9-16.2l11.3,23c-17,11.6-38.4,20-62.7,20c-50.8,0-76.2-35.4-76.2-100.2c0-62.1,32.7-90,78.6-90
		c21.9,0,40.5,4.6,55.9,11.9L911.2,467.8z"/>
	<path class="st3" d="M983.6,495.9c14-10.8,29.2-17,45.4-17c27.3,0,44.8,17.6,44.8,47.8v91.9h-29.7v-89.4c0-15.7-9.5-23.8-24.6-23.8
		c-13,0-25.1,7.3-35.9,16.2v97h-29.7v-200h29.7L983.6,495.9L983.6,495.9z"/>
	<path class="st3" d="M1114.9,489.4c17.8-5.9,36.5-10.5,55.9-10.5c33,0,52.7,14.3,52.7,45.7c0,15.4-0.5,50.3-0.5,58.6
		c0,14.6,0.8,24.6,2.7,34l-26.5,3.5c-1.4-4.3-2.7-9.5-3.5-15.4c-11.1,9.2-25.7,17-44.8,17c-22.7,0-44.6-13-44.6-44.6
		c0-25.1,16.2-42.2,57.5-42.2c11.3,0,21.6,0.3,31.1,0.8v-7.6c0-19.5-8.6-26.2-27.8-26.2c-14.6,0-31.9,4.3-47.5,9.7L1114.9,489.4z
		 M1194.6,558c-8.9-0.3-19.2-0.8-27-0.8c-26.5,0-33.8,8.1-33.8,21.1c0,14.9,9.7,21.6,22.4,21.6c14,0,27.6-8.9,38.4-18.4V558z"/>
	<path class="st3" d="M1335.1,505.9h-34.6V581c0,12.4,5.1,15.7,14.3,15.7c8.6,0,15.9-2.2,22.2-3.8l4.1,23.8
		c-10.8,3.5-22.2,5.7-33.5,5.7c-19.7,0-35.9-5.9-35.9-38.9V506h-27v-23h29.2v-41.1h26.7V483h34.6L1335.1,505.9L1335.1,505.9z"/>
</g>
<g class="st2">
	<path class="st3" d="M911.2,467.8c-15.4-5.9-29.7-9.5-46.5-9.5c-30,0-49.2,18.6-49.2,63.8c0,50.3,17.3,73.2,48.1,73.2
		c17.6,0,34.3-6.8,48.9-16.2l11.3,23c-17,11.6-38.4,20-62.7,20c-50.8,0-76.2-35.4-76.2-100.2c0-62.1,32.7-90,78.6-90
		c21.9,0,40.5,4.6,55.9,11.9L911.2,467.8z"/>
	<path class="st3" d="M983.6,495.9c14-10.8,29.2-17,45.4-17c27.3,0,44.8,17.6,44.8,47.8v91.9h-29.7v-89.4c0-15.7-9.5-23.8-24.6-23.8
		c-13,0-25.1,7.3-35.9,16.2v97h-29.7v-200h29.7L983.6,495.9L983.6,495.9z"/>
	<path class="st3" d="M1114.9,489.4c17.8-5.9,36.5-10.5,55.9-10.5c33,0,52.7,14.3,52.7,45.7c0,15.4-0.5,50.3-0.5,58.6
		c0,14.6,0.8,24.6,2.7,34l-26.5,3.5c-1.4-4.3-2.7-9.5-3.5-15.4c-11.1,9.2-25.7,17-44.8,17c-22.7,0-44.6-13-44.6-44.6
		c0-25.1,16.2-42.2,57.5-42.2c11.3,0,21.6,0.3,31.1,0.8v-7.6c0-19.5-8.6-26.2-27.8-26.2c-14.6,0-31.9,4.3-47.5,9.7L1114.9,489.4z
		 M1194.6,558c-8.9-0.3-19.2-0.8-27-0.8c-26.5,0-33.8,8.1-33.8,21.1c0,14.9,9.7,21.6,22.4,21.6c14,0,27.6-8.9,38.4-18.4V558z"/>
	<path class="st3" d="M1335.1,505.9h-34.6V581c0,12.4,5.1,15.7,14.3,15.7c8.6,0,15.9-2.2,22.2-3.8l4.1,23.8
		c-10.8,3.5-22.2,5.7-33.5,5.7c-19.7,0-35.9-5.9-35.9-38.9V506h-27v-23h29.2v-41.1h26.7V483h34.6L1335.1,505.9L1335.1,505.9z"/>
</g>
</svg>
