<?xml version="1.0" encoding="utf-8"?>
<!-- Generator: Adobe Illustrator 28.0.0, SVG Export Plug-In . SVG Version: 6.00 Build 0)  -->
<svg version="1.1" id="Layer_1" xmlns="http://www.w3.org/2000/svg" xmlns:xlink="http://www.w3.org/1999/xlink" x="0px" y="0px"
	 viewBox="0 0 122.9 103.4" style="enable-background:new 0 0 122.9 103.4;" xml:space="preserve">
<style type="text/css">
	.st0{fill:#00802F;}
	.st1{fill:#FFFFFF;}
</style>
<g id="Send" transform="translate(0)">
	<ellipse id="Ellipse_1-2" class="st0" cx="56.1" cy="47.8" rx="47.1" ry="47.1"/>
	<path id="Polygon_1-2" class="st0" d="M108.8,102.4L68.3,86.2l20.1-22.3L108.8,102.4z"/>
	<g id="send-icon" transform="translate(9.662 13.492)">
		<path id="Pfad_219" class="st1" d="M51.2,62.5L41,52.7l-10.5,9.5c-0.2,0.3-0.6,0.4-0.9,0.4c-0.7,0-1.2-0.5-1.2-1.2c0,0,0,0,0,0
			V40.7L15.6,28.6c-0.5-0.5-0.5-1.3-0.1-1.8c0.2-0.2,0.4-0.3,0.6-0.4l0,0L77.3,9.2c0.7-0.2,1.4,0.2,1.6,0.9c0,0,0,0,0,0
			c0.1,0.3,0.1,0.7-0.1,1l-25.5,51c-0.3,0.6-1.1,0.9-1.7,0.6C51.4,62.6,51.3,62.5,51.2,62.5L51.2,62.5z M39.2,51l-8.3-7.9v15.4
			L39.2,51L39.2,51z M29.8,38.6l39.5-24.5L18.9,28.3L29.8,38.6z M74.5,13.9L31.7,40.4l20.1,19.1L74.5,13.9L74.5,13.9z"/>
	</g>
</g>
</svg>
