<?xml version="1.0" encoding="utf-8"?>
<!-- Generator: Adobe Illustrator 28.0.0, SVG Export Plug-In . SVG Version: 6.00 Build 0)  -->
<svg version="1.1" id="Layer_1" xmlns="http://www.w3.org/2000/svg" xmlns:xlink="http://www.w3.org/1999/xlink" x="0px" y="0px"
	 viewBox="0 0 122.9 103.4" style="enable-background:new 0 0 122.9 103.4;" xml:space="preserve">
<style type="text/css">
	.st0{fill:#00A6FB;}
	.st1{fill:#FFFFFF;}
</style>
<g id="Send_00000095333323463518625540000001388174474252323237_" transform="translate(0)">
	<ellipse id="Ellipse_1-2_00000075873023860853553970000017596473760595679881_" class="st0" cx="54" cy="47.8" rx="47.1" ry="47"/>
	<path id="Polygon_1-2_00000050650241772328466590000006491630037640413342_" class="st0" d="M106.8,102.3L66.3,86.1l20.1-22.3
		L106.8,102.3z"/>
</g>
<g>
	<g id="Gruppe_36" transform="translate(0)">
		<g id="Gruppe_35" transform="translate(0 0)">
			<path id="Pfad_119" class="st1" d="M56.5,74c-1.7-0.8-2.4-2.7-1.6-4.4c0.1-0.2,0.2-0.4,0.3-0.6c3.3-4.4,5.3-10.3,5.3-22.6
				c0-10.9-2-15.7-5.3-20c-1.1-1.4-0.9-3.5,0.6-4.6c0.2-0.2,0.3-0.2,0.6-0.3l0.1-0.1c1.4-0.7,3-0.4,4,0.7c4.3,4.9,7.7,11.6,7.7,24.3
				c0,14.7-3.3,21.8-7.7,26.7C59.4,74.3,57.9,74.6,56.5,74L56.5,74z"/>
		</g>
	</g>
	<g>
		<circle class="st1" cx="44.1" cy="57.7" r="4.8"/>
		<circle class="st1" cx="44.1" cy="38.8" r="4.8"/>
	</g>
</g>
</svg>
