<?xml version="1.0" encoding="utf-8"?>
<!-- Generator: Adobe Illustrator 28.0.0, SVG Export Plug-In . SVG Version: 6.00 Build 0)  -->
<svg version="1.1" id="Layer_1" xmlns="http://www.w3.org/2000/svg" xmlns:xlink="http://www.w3.org/1999/xlink" x="0px" y="0px"
	 viewBox="0 0 122.9 103.4" style="enable-background:new 0 0 122.9 103.4;" xml:space="preserve">
<style type="text/css">
	.st0{fill:#00802F;}
	.st1{fill:#FFFFFF;}
</style>
<g id="Send_00000095333323463518625540000001388174474252323237_" transform="translate(0)">
	<ellipse id="Ellipse_1-2_00000075873023860853553970000017596473760595679881_" class="st0" cx="54" cy="47.8" rx="47.1" ry="47"/>
	<path id="Polygon_1-2_00000050650241772328466590000006491630037640413342_" class="st0" d="M106.8,102.3L66.3,86.1l20.1-22.3
		L106.8,102.3z"/>
	<g id="Gruppe_36" transform="translate(0)">
		<g id="Gruppe_35" transform="translate(0 0)">
			<path id="Pfad_119" class="st1" d="M57.2,80.7c-2.1-1-3-3.4-2-5.5c0.1-0.2,0.2-0.5,0.4-0.7c4.1-5.5,6.7-12.9,6.7-28.3
				c0-13.7-2.5-19.7-6.7-25.1c-1.4-1.8-1.1-4.4,0.7-5.8c0.2-0.2,0.4-0.3,0.7-0.4l0.1-0.1c1.7-0.9,3.8-0.5,5,0.9
				c5.4,6.1,9.7,14.6,9.7,30.5c0,18.5-4.2,27.3-9.7,33.5C60.9,81.1,58.9,81.5,57.2,80.7L57.2,80.7z"/>
		</g>
	</g>
</g>
<circle class="st1" cx="41.7" cy="60.3" r="6"/>
<circle class="st1" cx="41.7" cy="36.5" r="6"/>
</svg>
