<?xml version="1.0" encoding="utf-8"?>
<!-- Generator: Adobe Illustrator 28.0.0, SVG Export Plug-In . SVG Version: 6.00 Build 0)  -->
<svg version="1.1" id="Layer_1" xmlns="http://www.w3.org/2000/svg" xmlns:xlink="http://www.w3.org/1999/xlink" x="0px" y="0px"
	 viewBox="0 0 122.9 103.4" style="enable-background:new 0 0 122.9 103.4;" xml:space="preserve">
<style type="text/css">
	.st0{fill:#FFFFFF;}
</style>
<g>
	<path class="st0" d="M69.5,102.8L49.8,84l-20.2,18.3c-0.5,0.5-1.1,0.8-1.8,0.8c-1.4,0-2.4-1.1-2.4-2.4V60.8L0.8,37.4
		c-1-0.9-1-2.5-0.1-3.5c0.3-0.3,0.7-0.5,1.1-0.7l0,0l118-33.2c1.3-0.4,2.6,0.4,3,1.7c0.2,0.7,0.1,1.3-0.2,1.9l-49.2,98.4
		c-0.6,1.2-2.1,1.7-3.3,1.1C69.9,103.1,69.7,102.9,69.5,102.8L69.5,102.8L69.5,102.8z M46.3,80.7l-16-15.3v29.8L46.3,80.7L46.3,80.7
		z M28.1,56.7l76.3-47.3L7.2,36.8L28.1,56.7L28.1,56.7z M114.4,9L31.8,60.2L70.5,97L114.4,9L114.4,9z"/>
</g>
</svg>
