<?xml version="1.0" encoding="utf-8"?>
<!-- Generator: Adobe Illustrator 28.0.0, SVG Export Plug-In . SVG Version: 6.00 Build 0)  -->
<svg version="1.1" id="Ebene_1" xmlns="http://www.w3.org/2000/svg" xmlns:xlink="http://www.w3.org/1999/xlink" x="0px" y="0px"
	 viewBox="0 0 508 768" style="enable-background:new 0 0 508 768;" xml:space="preserve">
<style type="text/css">
	.st0{display:none;}
	.st1{display:inline;fill:#D1D1D3;}
	.st2{display:inline;fill:#FDFDFD;}
	.st3{fill:#FFFFFF;}
	.st4{fill:#3DB6AC;}
	.st5{fill:#04797B;}
	.st6{fill:#3DAAB6;}
	.st7{fill:#3499AC;}
	.st8{fill:#C7E2E5;}
	.st9{fill:#CCE7EA;}
	.st10{fill:#50A6AD;}
	.st11{fill:#58B6C2;}
	.st12{fill:#C0DADE;}
	.st13{fill:#5E949C;}
	.st14{fill:#0A0B10;}
	.st15{fill:#053D54;}
	.st16{fill:#15263D;}
	.st17{fill:#54AEB5;}
	.st18{fill:#198C9C;}
	.st19{fill:#FCAC8D;}
	.st20{fill:#F29474;}
	.st21{fill:#1D1813;}
	.st22{fill:#E67558;}
	.st23{fill:#B53B36;}
	.st24{fill:#902722;}
	.st25{fill:#DA654E;}
	.st26{fill:#4B2A1E;}
	.st27{fill:#C84B40;}
	.st28{fill:#5F2C18;}
	.st29{fill:#89959A;}
	.st30{fill:#873532;}
	.st31{fill:#9F3D2C;}
	.st32{fill:#454B47;}
	.st33{fill:#5B4739;}
</style>
<g>
	<g id="Background_00000008108410213188554090000013273710703178870949_" class="st0">
		<path class="st1" d="M152,741.4c-84,0-168.1,0-252.1,0c0-357.6,0-357.6,0-715.2c357.6,0,357.6,0,715.2,0c0,357.6,0,357.6,0,715.2
			c-75.4,0-150.9-0.1-226.3,0c0.3-1.4,1.8-1.3,3.5-2.1c2.5-1.2,19.9-9,20.3-10.1c-8.5-18.1-12.5-37.6-11.2-57.6
			c3.6,0.9,16.7,3.7,19.9,4.2c23.2,3.2,37.4,2.6,49.9-19.2s13.4-45.8,16.8-69.5c2.6,0.5,0.6-3.3,1.7-4.2c1-0.8,3.2,1.9,4.5,1
			c1.4-0.9,10.9-27.2,11.9-30.7c20.6-72.9,4.7-189.7-32.1-256.3c-26.8-48.4-73-88.1-126.4-103.7c10.2-5.5,12.6-16.7,2.1-23.4
			c13.6-9.1,15.4-26,2.8-37c18.2-14.7,0.1-34-18.5-33.2c-0.8-0.6,1.7-11.1-7.7-17.5c-9.7-6.6-17.1-0.9-19.2-4.2
			c-2.1-11.8-24.4-17-39.5-6.3c-7.1-15.1-23.8-10.7-31.8,1.4c-18.3-13.2-34.3,3.4-43.7,18.9c-16.3-5.5-18,5.1-19.6,5.6
			c-1.1,0.3-17.2-4.4-11.5,12.9c0.8,2.4,4.6,6.3,7,7.7c-11.2,14.8,1.7,22.8,16.1,25.1c-3.8,10.3-3.7,21.1-4.2,31.8
			c-0.4,7.2-0.9,14.4-0.7,21.7c-6.2,0.5-6.7-0.1-6.3,7.3c0.2,0.7,2.1,0.2,2.1,0.3c1.2,4,3.3,13.6,7.7,16.1c-1.8,1.1,0.1,2.9,0,4.2
			c-0.4,4.6-6.5,12.6-2.8,30c3.8,17.9,17.8,30.2,25.1,41.6c2.9,4.4,4.6,11.1,9.1,14.7c0.2,1.2-0.7,0.7-1.4,1.7
			c-0.5,0.7-4.3,4.1-4.9,4.9c-19.4-1.9-39.4,12.9-49.6,27.9c-10.8,5.3-23.2,16.2-30,20.3c-11.1,6.6-31.5,10.1-52.4,37.7
			c-7.7-0.2-17.6-0.4-25.1,0c-0.6-26.5,16.4-57.5,38.1-72.6c11.5-8,29.2-12.5,18.2-11.2c-18.9,2.3-45.6,25.2-56.9,40.2
			C-2.5,429-2,530.6,35.4,606.4c0.8,1.7,1.9,4.6,3.5,3.1c6,24.8,27,67.2,58,46.1c14.5-9.9,20.3-26,27.2-41.2
			c8,10.1,8,10.1,16.1,20.3c0,18.6-1.5,37.3-0.7,55.9c-0.9,2-1.3,4.6-1.4,4.9c-4.2,10.1-7.1,20.8-12.6,30.4
			C138.7,733.6,138.7,733.6,152,741.4z"/>
		<path class="st2" d="M347.5,193.1c53.4,15.6,99.6,55.3,126.4,103.7c36.8,66.6,52.7,183.4,32.1,256.3c-1,3.5-10.5,29.8-11.9,30.7
			s-3.6-1.8-4.5-1c-1.1,0.9,0.9,4.7-1.7,4.2c0.3-2.1,1-5.2,0-7c12.8-24.5,4.3-23.8,4.2-26.9c-0.1-1.7,3.6-6.1,3.5-7
			c0-0.5-5.3-6-5.6-7.7c-0.5-2.7,4.9-36.5,5.6-55.2c1.1-31.5-0.2-79.9-21-105.5c-3.2-4-7.4-6.8-11.2-10.1c-1.2-1.1-2.9-1.6-3.5-2.1
			c-28.1-23.8-39.1-26.2-71.6-41.9c-0.5-1-0.5-1-1-2.1c-1.1-12.6-13.9-29.1-26.5-31.4c-2.8-1.1-4.2-1-7-1.4
			c-8.7-1.2-17.2-0.5-25.8-0.7c-3.7-17.2-9.6-49.6,4.9-61.8c1.7-3.2,2-6.1,3.5-9.4c3.4-7.2,9.6-12,4.2-22
			C342.8,194.1,347.2,193.3,347.5,193.1z"/>
	</g>
	<g>
		<g>
			<path class="st3" d="M50.7,403.4c-4.9,0.3-8.8-1.7-10.5,4.2c-2.1,7.5,18.8,50.2,23,60.1c-7.3,2.3-15.5,5.5-18.2,13.6
				c-2.2,6.6-3.7,38.6-4.9,48.9c-0.9,3.8-2.4,7.6-2.8,11.5c-0.2,1.9-0.7,3.7-0.7,5.6c-1.9,21.7-3,40.8,2.1,62.2
				c-1.5,1.5-2.7-1.5-3.5-3.1C-2.2,530.6-2.7,429.1,49.9,359.8c11.4-14.9,38.1-37.8,56.9-40.2c11-1.4-6.7,3.1-18.2,11.2
				C67.1,345.9,50.1,376.9,50.7,403.4z"/>
			<path class="st3" d="M128.2,365.7c-0.5,2.2-1.8,4.3-2.8,6.3c-11.7,23.4-9.5,29.8-13.3,54.5c-3.4-6.6-6.5-18.1-13.3-21
				c-2.5-3.6-17.8-2-23-2.1C96.8,375.8,117.1,372.3,128.2,365.7z"/>
			<path class="st3" d="M207.8,317.5c-3.4,4.2-12.7,15.2-13.3,16.1c-9.7,1.4-27.6,7.6-36.3,11.9
				C168.5,330.4,188.4,315.6,207.8,317.5z"/>
		</g>
		<g>
			<g>
				<path class="st4" d="M50.7,403.4c7.5-0.4,17.4-0.2,25.1,0c5.3,0.1,20.6-1.5,23,2.1c0.5,0.8,1.6,1.7,1,2.1c-29.9,0-29.9,0-59.7,0
					C41.9,401.7,45.8,403.6,50.7,403.4z"/>
				<path class="st5" d="M112.2,426.4c0,0.3,0,0.3,0,0.7c-13.8-23.2,1.2,12.1,3.5,17.8c0.3,0.8-0.7,1.3-0.7,1.4
					c0.3,0.7,5.9,7.9,5.6,14.7c5.7,2.4,4.1,9,8.4,10.8c0.7,1.6,1.5,3.2,2.1,4.9c-7.3,0-14.7,0.5-22,0c-0.5-6.5-0.5-6.5-1-12.9
					c-0.4-0.7-1.5-0.2-2.1-0.3c-5.2-1.3-15.4,0.2-21,0.7c-6,0.5-16.1,1.7-21.7,3.5c-4.3-9.9-25.2-52.6-23-60.1c29.9,0,29.9,0,59.7,0
					c0.6-0.4-0.5-1.3-1-2.1C105.6,408.3,108.8,419.8,112.2,426.4z"/>
				<path class="st5" d="M112.2,427.1c4.3,7.3,5.5,13.4,8.4,21c3,8,4.9,15.8,8.4,23.7c-4.3-1.8-2.7-8.4-8.4-10.8
					c0.3-6.8-5.3-13.9-5.6-14.7c0-0.1,1-0.6,0.7-1.4C113.4,439.2,98.4,403.9,112.2,427.1z"/>
			</g>
			<g>
				<path class="st6" d="M138.7,537.5c0.8,10.2-0.7,20.6-0.7,30.7c-19.9-7.3-19.9-7.3-39.8-14.7c1.2-3.5,2.7-7,2.8-10.8
					c0.9-0.9,0.9-0.9,1.7-1.7C120.7,539.2,120.7,539.2,138.7,537.5z"/>
				<path class="st7" d="M138,568.2c0,1.8,1.8,7.9,0,14.7c-14.6-6.1-29.7-11.9-41.9-22.4c0.1-2.5,1.3-4.7,2.1-7
					C118.1,560.9,118.1,560.9,138,568.2z"/>
			</g>
		</g>
		<g>
			<path class="st8" d="M231.6,672.3c-0.3,16.1,0.4,32.1,0,48.2c-0.2,6.9-1.3,14-0.7,21c-1.6,0-3.3,0-4.9,0c0-2.8,0-5.6,0-8.4
				c0.4-22.4,0.9-44.8-0.7-67.1c5.1-10.3,1.6-46.1,3.5-54.8c0.3-1.5,2-2.3,2.1-2.4C231.2,640.5,231.2,640.5,231.6,672.3z"/>
			<g>
				<path class="st9" d="M226,733c0,2.8,0,5.6,0,8.4c-24.7,0-49.4,0-74,0c-13.3-7.9-13.3-7.9-26.5-15.7c5.5-9.6,8.4-20.3,12.6-30.4
					c21.7,32.2,69.3,31,73,32.8C211.8,728.5,209,732.9,226,733z"/>
				<path class="st9" d="M144.3,538.9c2.3,28.8-2.8,106,21.3,125c7.1,5.6,50.1,21.5,59.7,2.1c1.6,22.3,1.1,44.7,0.7,67.1
					c-17-0.1-14.2-4.5-15-4.9c-3.7-1.8-51.3-0.6-73-32.8c0.1-0.3,0.5-2.9,1.4-4.9c3.3-7.3,4.2-14,14-13.6
					c-8.2-17.5-8.8-36.9-11.2-46.8c-0.1-0.5-0.9-0.4-1.4-0.3c-0.1-13.1-1.1-26.3-1.4-39.5c0-0.2-1.4-2.3-1.4-2.4c0-1.6,0-3.3,0-4.9
					c1.8-6.8,0-12.8,0-14.7c0-10.2,1.5-20.5,0.7-30.7C141.6,536.9,143.1,538.6,144.3,538.9z"/>
			</g>
			<g>
				<path class="st10" d="M355.2,667.4c5.4,3.8,16.3,5.1,18.2,14.3c4.5,22.5-36.7,46.4-51,59.7c-30.5,0-61,0-91.5,0
					c-0.6-7,0.5-14,0.7-21c20.8,0.1,41.9-0.5,62.5-4.2C312.9,697.8,333.7,682.4,355.2,667.4z"/>
				<g>
					<path class="st11" d="M386,666c-4.9,52.7-34.2,61.5-36,65c-0.5,0.9-0.4,1.5-0.3,2.4c13.9,2.7,50.2-3.1,42.6,5.9
						c-1.7,0.8-3.2,0.7-3.5,2.1c-22.1,0-44.2,0-66.4,0c14.3-13.3,55.5-37.3,51-59.7c-1.8-9.2-12.8-10.5-18.2-14.3
						c2.7-1.9,6.9-6.4,11.2-8.4C372.5,661.8,379.6,663.8,386,666z"/>
					<path class="st10" d="M401.3,671.6c-1.3,20,2.7,39.5,11.2,57.6c-0.3,1.1-17.7,8.9-20.3,10.1c7.6-9-28.7-3.3-42.6-5.9
						c-0.1-0.9-0.1-1.6,0.3-2.4c1.8-3.4,31.1-12.3,36-65C390.1,667.4,398.7,670.9,401.3,671.6z"/>
				</g>
			</g>
			<path class="st3" d="M138,587.8c0,0.1,1.4,2.2,1.4,2.4c0.3,13.1,1.3,26.4,1.4,39.5c0,3.1-0.7,4.1-0.7,4.9
				c-8-10.1-8-10.1-16.1-20.3C128.7,604,134.6,585.5,138,587.8z"/>
			<path class="st12" d="M139.4,690.4c-0.8-18.6,0.7-37.3,0.7-55.9c0-0.8,0.7-1.8,0.7-4.9c0.5,0,1.3-0.2,1.4,0.3
				c2.4,9.9,3,29.3,11.2,46.8C143.6,676.4,142.7,683.1,139.4,690.4z"/>
			<path class="st11" d="M366.4,659c-4.2,2-8.5,6.5-11.2,8.4c-21.5,15-42.3,30.4-61.1,48.9c-20.6,3.7-41.7,4.3-62.5,4.2
				c0.4-16-0.3-32.1,0-48.2c19.7,7.2,43.1,17.8,63.9,11.2c16.3-5.2,35.8-26.9,36.7-44.7C340.2,643.7,359.9,656,366.4,659z"/>
			<path class="st12" d="M161,544.5c0.3,1.3,1.5,2.4,2.1,3.5c13.3,22.2,52.6,23,75.4,23.7c3,0.3,3,0.3,5.9,0.7
				c7.2,6.7,14.4,13.3,22,19.6c5.6,4.6,11,9.5,16.8,14c-0.1,0.9,0.2,2,0,2.4c-1.8,4.2-39.8-11.2-48.5-5.2c-1.9,1.3-2.9,3.6-3.8,5.6
				c-0.1,0.1-1.8,0.9-2.1,2.4c-1.9,8.7,1.7,44.5-3.5,54.8c-9.7,19.4-52.6,3.5-59.7-2.1c-24.1-19-19-96.2-21.3-125
				C149.8,540.1,155.6,542.8,161,544.5z"/>
			<path class="st9" d="M283.3,605.9c14,10.6,33.8,23.6,48.9,32.8c-0.8,17.8-20.4,39.5-36.7,44.7c-20.8,6.6-44.3-4-63.9-11.2
				c-0.3-31.8-0.3-31.8-0.7-63.6c1-2,1.9-4.3,3.8-5.6c8.8-6,46.7,9.4,48.5,5.2C283.5,608,283.2,606.8,283.3,605.9z"/>
			<path class="st11" d="M460,365.7c-32,19.8-63,44.5-65.7,84.5c-3.4,14-4.5,25.4-4.2,39.8c-3.3-0.8-8.9-22.3-10.8-22.4
				c-3.6,4.7-1,11.4-1,16.8c-0.2,28.6-0.4,57.3,0.7,85.9c-19.7-3.6-53.5-16.4-73-24.4c-3.5-2.2-4.3-5-7.3-7
				c-2.1-1.4-4.2-2.8-6.3-4.2c48.6-14.8,52.6-7.5,55.9-62.9c0.1,0,0.4-1.2,1-1.4c1.2-0.3,5.3,0.5,5.9-0.3c0.2-0.3,0.1-6.3-0.3-6.6
				c-2.9-2.1-68.2,2.9-71.2,0.7c-0.5-0.3-0.5-2.7-0.3-3.1c2.1-4.6,51.2,4.5,66-5.9c13-9.2,16.5-32.2,33.2-54.1
				c16.9-22.2,32.2-29.2,32.8-31.4c2.6-9.6-37.7-13.1-43.3-12.9c5.4-6.8,9.1-15.1,13.3-22.7c-1.5-1.1-2.3,3.2-2.8-0.3
				c2.1-3.7,2.9-8.1,4.9-11.9c0.5,1,0.5,1,1,2.1C420.9,339.5,431.9,341.8,460,365.7z"/>
			<path class="st7" d="M463.5,367.7c-1.4,1-3.3,2.1-4.9,2.8c-32.6,15.3-55.9,44.7-64.3,79.6c2.6-40.1,33.7-64.8,65.7-84.5
				C460.6,366.1,462.2,366.7,463.5,367.7z"/>
			<g>
				<path class="st7" d="M487.9,580.1c-12-2.3-24.1-5-36.3-6.3c1.3-3.9,12.3-1.7,13.3-3.8c-0.2-11-0.2-11-0.3-22
					c-23.4-1.2-46.9,0.5-70.2-2.4c15-2.9,60.6-4,71.6-10.8c14.8-9.1,14.5-79.9,12.9-96.7c-2.2-23.4-10.5-46.2-20.3-67.4
					c1.6-0.7,3.5-1.8,4.9-2.8c3.8,3.3,8,6.2,11.2,10.1c20.8,25.6,22.1,73.9,21,105.5c-0.7,18.7-6.1,52.5-5.6,55.2
					c0.3,1.7,5.5,7.2,5.6,7.7c0.1,0.9-3.6,5.3-3.5,7C492.2,556.3,500.7,555.5,487.9,580.1z"/>
				<path class="st11" d="M458.6,370.5c9.8,21.2,18,44,20.3,67.4c1.6,16.8,1.9,87.6-12.9,96.7c-11,6.8-56.6,8-71.6,10.8
					c23.3,2.9,46.8,1.3,70.2,2.4c0.2,11,0.2,11,0.3,22c-1,2.2-12-0.1-13.3,3.8c-20.4-2.1-40.9-1.3-61.5-1.4
					c3.1-11.3-3.4-25.9,2.8-26.9c0.4-15.6-1.2-31.2-1.4-46.8c-0.4-0.5-1.4-1-1.4-1.7c-0.1-2.3,0-4.7,0-7
					c-0.3-14.4,0.8-25.8,4.2-39.8C402.7,415.2,426,385.8,458.6,370.5z"/>
			</g>
			<path class="st13" d="M390.1,497c0,0.7,1,1.2,1.4,1.7c0.2,15.6,1.8,31.2,1.4,46.8c-6.2,1,0.3,15.6-2.8,26.9
				c-3.7-0.8-7.4-1.4-11.2-2.1c-1.1-28.6-0.9-57.3-0.7-85.9C384.2,490.7,384.2,490.7,390.1,497z"/>
			<path class="st12" d="M348.2,471.8c-5.9,0.9-45-0.6-56.9-0.7c-6.2,2.7-7.2,51.5-4.5,59.4c-9.1-6-19-11.2-27.9-17.5
				c-21.2-14.9-14.2-11.6-21-18.9c2.6-0.3,1.1-12.7,1.4-21c0.1-3-0.2-6.1,0-9.1c0.1-1.4,2.5-11.2,2.8-13.3c-0.4,3.3,1.3,1.8,3.5,1.4
				c-5.8,39.2,2.8-2.2,7-15.7c22.3-71.6,45.7-48.2,91.5-61.1c11.7-3.3,20.4-9.4,27.9-18.9c5.6-0.2,45.9,3.3,43.3,12.9
				c-0.6,2.2-15.9,9.2-32.8,31.4c-16.7,21.9-20.2,45-33.2,54.1c-14.8,10.4-63.9,1.4-66,5.9c-0.2,0.4-0.1,2.8,0.3,3.1
				c3.1,2.2,68.3-2.8,71.2-0.7c0.5,0.3,0.5,6.4,0.3,6.6c-0.6,0.9-4.7,0.1-5.9,0.3C348.7,470.6,348.3,471.8,348.2,471.8z"/>
			<path class="st11" d="M120.5,448.1c-2.8-7.5-4.1-13.7-8.4-21c0-0.3,0-0.3,0-0.7c3.8-24.6,1.6-31,13.3-54.5
				C127.3,397.3,124.7,423.2,120.5,448.1z"/>
			<path class="st12" d="M299.3,361.5c-4.5,0.5-18.4,6.8-22.7,9.8c-26,18.1-26.9,52.6-31.1,81c-2.2,0.5-3.9,1.9-3.5-1.4
				c0.5-3.9-0.3-8.9,0-12.9c3-6.4,3.1-13.4,4.9-20.3c0.2-0.6,1.7,0.9,0.7-3.8c0.6-1.8,0.7-4.3,1.4-6.3c6.7-19.4,13.8-31.8,32.1-42.6
				c3.8-2.2,8.8-3.4,12.6-5.6C296.5,360.4,296.5,360.4,299.3,361.5z"/>
			<g>
				<path class="st12" d="M194.6,333.5c-1.6,2.5-11.3,21.2-11.2,22.7c0.1,1.6,3,3.7,4.2,4.5c0.2,0.1,1.8,2.6,2.4,2.8
					c2.9,0.8,5.2-0.6,11.5,1.4c16.5,5.3,25.1,23.1,39.1,32.1c5.1,8.5-4,52.6,7,16.8c1,4.8-0.5,3.2-0.7,3.8
					c-1.8,6.8-1.9,13.9-4.9,20.3c-0.3,4.1,0.5,9,0,12.9c-0.2,2.1-2.7,11.9-2.8,13.3c-2.9-6.2-7.9,27.5-2.4,26.5
					c2.8-0.5-1-16.7,2.4-17.5c-0.3,8.2,1.2,20.7-1.4,21c-11.6-12.6-15.1-19.4-32.1-25.1c-8.7-2.9-18.2-4.1-26.9-7
					c-1.6,0.3-1.6,0.3-3.1,0.7c-11.5,6-23.3,11.3-35.6,15.4c-7.7,0.8-8.6-1.4-9.1-1.4c-0.6-1.7-1.4-3.3-2.1-4.9
					c-3.5-7.9-5.4-15.8-8.4-23.7c4.1-24.9,6.8-50.8,4.9-76.1c1-2,2.3-4,2.8-6.3c6.8-4.1,19.2-14.9,30-20.3
					C166.9,341.1,184.9,334.9,194.6,333.5z"/>
				<path class="st12" d="M239.3,464.1c-0.2,3,0.1,6.1,0,9.1c-3.4,0.7,0.4,17-2.4,17.5C231.4,491.6,236.4,457.9,239.3,464.1z"/>
			</g>
			<g>
				<path class="st14" d="M263.7,140c5.8,7.6,31.3,10.2,39.5,8.4c32.3-7.3,26.6-60.2-7.3-44c0-5.1-2.5-10.9-4.2-15.7
					c7.5-4,7.5-4,15-8c-1.5-4.3,0.4-2.6,0.3-2.8c2.1,3.3,9.5-2.4,19.2,4.2c9.4,6.4,6.9,16.9,7.7,17.5c18.6-0.8,36.8,18.5,18.5,33.2
					c12.6,11,10.9,27.9-2.8,37c10.5,6.7,8.1,17.9-2.1,23.4c-0.3,0.2-4.7,0.9-7,1.7c5.4,10-0.8,14.8-4.2,22c-1.2-7.4-1-20.5-9.1-24.4
					c-8.9-4.3-16,2.2-17.5,10.8c-0.8,4.5,0.7,9.6,0.7,10.1c0,0.4-1.9,5.4,0,8.4c-3.2,2.4-3.8,4.1-5.6,7.3
					c-3.8-15.8-6.9-25.1-3.5-41.9c-16.7-10.1-21.8-12-20.3-33.5c-5.8-1.9-11.6-4-17.5-5.9c-1.2-0.4-2.4-1.1-3.5-1.4
					c-8-2.4-13.8-4.1-22.4-4.9c-13.7-1.2-26.9,0.3-40.5,2.1c4-3.8-2.2,0-10.8-5.6c-6.2-4-10.9-14.7-10.8-22
					c9.6-0.4,8.8,12.5,24.8,18.5c3.2-2.3-10.8-21,0.7-15.4c9,4.4,12.3,21.5,14.7,21c2.2-6.1-8.5-16-2.8-25.1
					c11.7,9.5,12.2,29.1,18.9,24.4c0.9-0.6,0.5-13.4,6.6-20.6c8.1-9.5,15.7-2.6,19.6-9.1c4.2-7,1.7-18.8-3.5-24.8
					c1.2-7.9,10.6-13,17.8-9.8c2.3,2.1-5.9,2.9-9.4,7.3c-6.8,8.6,1.7,3.8,9.8,14c13.8,17.4,4.8,40-17.5,41.9
					C254,140.4,263,140.1,263.7,140z"/>
				<path class="st15" d="M235.8,73c-0.6,0.9-4.7,8.7-4.9,9.4c-8,25,7.6-3.5,16.4-2.4c1.6,0.2,6.1,3.4,7.3,4.9
					c5.2,6,7.7,17.8,3.5,24.8c-3.9,6.4-11.4-0.4-19.6,9.1c-6.1,7.2-5.7,20-6.6,20.6c-6.6,4.7-7.2-15-18.9-24.4
					c-5.7,9.2,5,19,2.8,25.1c-2.4,0.5-5.6-16.5-14.7-21c-11.5-5.6,2.5,13-0.7,15.4c-16-6-15.2-18.9-24.8-18.5
					c-0.1,7.3,4.6,18,10.8,22c8.7,5.6,14.8,1.8,10.8,5.6c-2.5,2.3-5.3,3-7.3,4.9c-4.6,4.3-8.6,13-9.4,19.2c-0.7,5,1.5,8.2-0.7,7.3
					c0.5-10.7,0.4-21.5,4.2-31.8c-14.4-2.3-27.2-10.3-16.1-25.1c-2.3-1.4-6.2-5.2-7-7.7c-5.7-17.4,10.4-12.6,11.5-12.9
					c1.6-0.5,3.2-11,19.6-5.6C201.5,76.4,217.5,59.8,235.8,73z"/>
				<path class="st15" d="M307,77.9c0,0.2-1.8-1.5-0.3,2.8c-7.5,4-7.5,4-15,8c1.7,4.8,4.2,10.6,4.2,15.7c0.1,16.4-15.3,35-32.1,35.6
					c-0.7,0-9.8,0.3-8.4-1.7c22.3-1.9,31.2-24.5,17.5-41.9c-8-10.2-16.5-5.4-9.8-14c3.5-4.5,11.7-5.2,9.4-7.3
					c-7.2-3.2-16.6,1.9-17.8,9.8c-1.3-1.5-5.7-4.7-7.3-4.9c-8.8-1.1-24.4,27.5-16.4,2.4c0.2-0.7,4.3-8.5,4.9-9.4
					c8-12.1,24.7-16.5,31.8-1.4C282.6,60.8,304.9,66.1,307,77.9z"/>
				<path class="st16" d="M263.7,140c16.8-0.7,32.2-19.2,32.1-35.6c33.9-16.1,39.7,36.7,7.3,44C295,150.3,269.5,147.6,263.7,140z"/>
			</g>
			<path class="st12" d="M348.2,471.8c-3.3,55.3-7.3,48.1-55.9,62.9c-3-2-5.3-4-5.6-4.2c-2.6-7.9-1.7-56.6,4.5-59.4
				C303.2,471.3,342.4,472.7,348.2,471.8z"/>
			<path class="st17" d="M372,356.6c-7.5,9.4-16.2,15.5-27.9,18.9c-3-1.3-5.9-6.6-2.8-7.7c6.3-1.1,17-7.1,22-11.2
				c4.8-3.9,16.2-17.7,19.2-23c0.5,3.5,1.3-0.8,2.8,0.3C381.1,341.5,377.4,349.8,372,356.6z"/>
			<path class="st13" d="M390.1,490c0,2.3-0.1,4.7,0,7c-5.9-6.3-5.9-6.3-11.9-12.6c0-5.4-2.6-12,1-16.8
				C381.2,467.6,386.8,489.1,390.1,490z"/>
			<g>
				<g>
					<path class="st11" d="M222.5,319.6c3.1,17.1,3.1,17.1,6.3,34.2c-2.1-0.1-36.6,4.4-41.2,7c-1.2-0.9-4.1-3-4.2-4.5
						c-0.1-1.5,9.5-20.2,11.2-22.7c0.6-0.9,9.9-11.9,13.3-16.1c0.6-0.8,4.4-4.1,4.9-4.9C217.6,316.1,217.6,316.1,222.5,319.6z"/>
					<path class="st13" d="M220.4,363.6c16.2,2.6,20,19.2,20.3,33.5c-14.1-9-22.6-26.8-39.1-32.1C207.7,363,214.2,362.5,220.4,363.6
						z"/>
					<path class="st11" d="M236.5,365c7.5,13.1,11,27.7,12.6,42.6c-0.7,2-0.8,4.5-1.4,6.3c-10.9,35.8-1.9-8.2-7-16.8
						c-0.2-14.3-4-30.9-20.3-33.5c-1.7-3.3,7.3-0.9,9.4,0C233.5,365.2,236,371.9,236.5,365z"/>
					<path class="st11" d="M236.5,365c-0.5,7-3,0.2-6.6-1.4c-2.1-0.9-11.1-3.3-9.4,0c-6.2-1-12.8-0.5-18.9,1.4
						c-6.3-2-8.6-0.6-11.5-1.4c-0.7-0.2-2.3-2.7-2.4-2.8c4.6-2.6,39.1-7,41.2-7c1.4,0,5.5,7,6.3-3.5C235,355.6,235,359.7,236.5,365z
						"/>
					<path class="st7" d="M226,319.6c0.3,2.7,5.5,1.3,7.7,0.7c0.5-0.1,1.4,0.4,1.4-0.7c1.1,0.3,2.6-0.6,3.5,1
						c-1.3,8.9-3.4,20.9-3.5,29.7c-0.8,10.5-4.8,3.5-6.3,3.5c-3.1-17.1-3.1-17.1-6.3-34.2C223.6,319.7,224.9,319.4,226,319.6z"/>
				</g>
				<g>
					<path class="st7" d="M387.4,321.6c-2,3.8-2.8,8.1-4.9,11.9c-3,5.4-14.4,19.1-19.2,23c-5,4.1-15.7,10.1-22,11.2
						c-2.6,0.5-7.5,0.9-10.1,0.7c-0.5,0-0.2-1.3-0.7-1.4c-10.6,0.9-20.3-6.7-31.1-5.6c-2.8-1-2.8-1-5.6-2.1c2.8-1.7,6.3-2.6,9.1-4.2
						c26.7,11,50.4,7.8,65-19.2c12.1-22.5,0.5-31.6-0.7-36c-0.6-2.3-0.6-3.9,0.7-5.9c-0.1-0.5-6.1-3.5-7-3.8
						C373.5,292.6,386.3,309,387.4,321.6z"/>
					<path class="st18" d="M360.8,290.2c0.9,0.4,6.9,3.4,7,3.8c-1.3,2-1.3,3.7-0.7,5.9c-6.9,8.6-15.6,14.5-23.7,21.7
						c-14.5-6.5,19.3-18,14-29c-0.2-0.5-2.7-2.4-3.5-2.4c0-0.7,0-0.7,0-1.4C356.6,289.2,358,289.1,360.8,290.2z"/>
					<path class="st11" d="M353.8,288.8c0,0.7,0,0.7,0,1.4c-2.3-0.2-18,8.9-22.4,9.8c-1.3-4.1-2.6-7.6-3.5-11.9
						C336.7,288.3,345.2,287.6,353.8,288.8z"/>
					<path class="st11" d="M367.1,300c1.2,4.4,12.8,13.4,0.7,36c-14.5,27-38.2,30.2-65,19.2c14.1-8.3,26.2-21.4,38.4-32.1
						c0.1-0.1,0.1,0.3,2.1-1.4C351.5,314.5,360.2,308.5,367.1,300z"/>
					<path class="st7" d="M343.3,321.6c-2,1.7-2,1.3-2.1,1.4c-5.1-6.9-7.3-15.2-9.8-23c4.3-0.8,20.1-10,22.4-9.8
						c0.8,0.1,3.3,2,3.5,2.4C362.6,303.6,328.8,315.2,343.3,321.6z"/>
				</g>
			</g>
			<path class="st11" d="M341.3,367.7c-3.1,1.1-0.2,6.4,2.8,7.7c-45.8,13-69.2-10.5-91.5,61.1c-4.2,13.5-12.8,54.9-7,15.7
				c4.2-28.4,5-63,31.1-81c4.3-3,18.2-9.3,22.7-9.8c10.8-1.1,20.5,6.5,31.1,5.6c0.5,0.1,0.2,1.4,0.7,1.4
				C333.7,368.6,338.6,368.2,341.3,367.7z"/>
			<g>
				<path class="st19" d="M237.9,141.4c-0.9,1.6-4.2-0.2-4.9,1.7c-0.7,2.2,2.4,39.2,0,45.4c11.9-1.2,11.9-1.2,23.7-2.4
					c4-0.5,3.5,5.3,3.5,8.4c-5.3-0.4-38,1.2-39.8,5.2c-0.1,0.3-0.1,3.8,0,4.5c-0.7-0.5-0.7-0.5-1.4-1c-1.7,9.4-6.3,17.9-8.4,27.2
					c-2.2,9.9-3.2,21-3.5,31.1c-2.1,0.1-4,0.4-4.9-2.1c-1-4.2-0.3-9-0.3-13.3c-11,4.2-11,4.2-22,8.4c-3.7-17.5,2.4-25.4,2.8-30
					c1.5,3,6.1,2.2,9.8,2.8c-0.2,3.2,6.7,2.3,9.4,4.2c1.4-2,0.3-2,0.3-2.1c1.1-4.2,1.3-8.3,1.4-12.6c0-0.2,0-0.5,0-0.7
					c0-1,1.7-1.3,1.4-2.4c-3.1-3.3-3.1-3.3-6.3-6.6c5.8-10.7-12.6-11-19.6-10.5c-0.2-7.2,0.3-14.4,0.7-21.7c2.2,0.8,0-2.4,0.7-7.3
					c0.8-6.2,4.8-14.9,9.4-19.2c2-1.9,4.9-2.6,7.3-4.9C210.9,141.8,224.2,140.2,237.9,141.4z"/>
				<path class="st20" d="M198.8,207.1c3.1,3.3,3.1,3.3,6.3,6.6c0.3,1.2-1.4,1.5-1.4,2.4c-5.9,2.1-12.8,8.8-21,4.2
					c-4.3-2.4-6.4-12.1-7.7-16.1C186.9,205.7,186.9,205.7,198.8,207.1z"/>
				<path class="st21" d="M179.2,196.6c6.9-0.6,25.4-0.3,19.6,10.5c-11.9-1.4-11.9-1.4-23.7-2.8c0-0.1-1.9,0.3-2.1-0.3
					C172.5,196.5,173,197.1,179.2,196.6z"/>
				<path class="st20" d="M260.2,146.3c-0.3,7.9-4.3,18.3-4.9,25.5c-0.4,4.9-0.5,15.4,1.4,14.3c-11.9,1.2-11.9,1.2-23.7,2.4
					c2.4-6.2-0.7-43.2,0-45.4c0.7-2,4-0.1,4.9-1.7C246.5,142.2,252.2,144,260.2,146.3z"/>
				<path class="st22" d="M263.7,147.7c1.7,28.1,14.5,40,17.5,51c-6.7-1.7-14.1-3.7-21-4.2c0-3,0.6-8.9-3.5-8.4
					c-1.9,1-1.8-9.5-1.4-14.3c0.6-7.2,4.6-17.6,4.9-25.5C261.3,146.7,262.5,147.3,263.7,147.7z"/>
				<path class="st23" d="M327.3,192.4c7.5,9.6,10.8,28.5,1,37c-0.1-5.4-0.9-6.4-3.8-10.5c-3.5-4.8-8.3-5.8-14-5.6
					c0-0.5-1.5-5.6-0.7-10.1C311.3,194.6,318.4,188.1,327.3,192.4z"/>
				<path class="st24" d="M324.5,219c-4.9-1.7-9.9-0.2-14,2.8c-1.9-2.9,0-8,0-8.4C316.2,213.2,321,214.1,324.5,219z"/>
				<path class="st25" d="M243.5,314c4.2,14.7,13.8,26.9,23.7,38.1c3.1,3.5,11.6,12.8,14,12.9c-18.3,10.8-25.4,23.2-32.1,42.6
					c-1.6-14.9-5-29.5-12.6-42.6c-1.5-5.2-1.4-9.4-1.4-14.7c0.1-8.8,2.2-20.7,3.5-29.7c-0.9-1.7-2.4-0.7-3.5-1
					c-0.7-0.2-1.7,0.1-2.4,0c0-0.7,0-0.7,0-1.4C235,317.7,242.2,314.9,243.5,314z"/>
				<path class="st25" d="M281.2,206.4c1.2,0.5,2.9,0.8,3.5,1.7c8.1,36.3,2.2,64-27.2,87.7c4.4-13,13.3-29.6,4.9-42.3
					c12.9-8.1,16.6-20.8,15.4-35.6c-0.5-0.5-0.5-0.5-1-1c-7.8,7.7-21.3,18.4-32.8,13.3c-3.4-1.5-3-3.3-3.1-3.5
					c4.6,2.1,10.3,1.5,15,0c3.7-1.1,20.6-12.7,11.5-11.2c-6.3-4.4-12.9-10.3-21-9.1c7-2.5,8.8-1.8,16.1-2.8
					C265.7,203.8,279.1,205.6,281.2,206.4z"/>
				<path class="st26" d="M260.2,194.5c6.9,0.5,14.3,2.5,21,4.2c0.5,1.6,2.5,8.3,0,7.7c-2.1-0.8-15.5-2.6-18.9-2.8
					c-13.4-0.8-26.6,0.7-39.8,2.8c-0.6-1.4-2.1-1.9-2.1-2.1c-0.1-0.7-0.1-4.3,0-4.5C222.2,195.7,254.9,194.2,260.2,194.5z"/>
				<path class="st27" d="M202.3,259.5c0.9,2.5,2.8,2.2,4.9,2.1c4.8-0.2,5.6-1.4,9.4-4.2c6.4,4.2,15.1,0.7,19.6-4.9
					C237.4,270.3,206,275.8,202.3,259.5z"/>
				<path class="st28" d="M240.7,226.7c-2.5-2.2-5.8-3.6-5.6-7.7c0.2,0,0.5,0,0.7,0c13.4,3.9,25.6-2.5,31.4-3.5
					c9.1-1.6-7.9,10-11.5,11.2C251,228.1,245.3,228.8,240.7,226.7z"/>
				<path class="st22" d="M262.3,203.6c-7.2,1-9,0.2-16.1,2.8c-4.7,1.7-14.5,6.5-10.5,12.6c-0.2,0-0.5,0-0.7,0c-2.2,0-1,0.9-1.7,2.1
					c-4.9-4.2-8.4-8.7-10.8-14.7C235.7,204.3,248.9,202.8,262.3,203.6z"/>
				<g>
					<path class="st28" d="M203.7,216.2c0,0.2,0,0.5,0,0.7c-3.1-0.4-2.2,7.1-3.5,11.2c-0.4-0.1-4.8-0.2-7.7-0.7
						c-3.7-0.6-8.2,0.2-9.8-2.8c0.1-1.2-1.8-3.1,0-4.2C190.9,225,197.8,218.3,203.7,216.2z"/>
					<path class="st27" d="M203.7,216.9c-0.1,4.3-0.3,8.4-1.4,12.6c-1.2-0.8-0.2-1-2.1-1.4C201.4,224,200.6,216.5,203.7,216.9z"/>
					<path class="st22" d="M200.2,228.1c1.9,0.4,0.9,0.6,2.1,1.4c0,0.1,1.1,0.1-0.3,2.1c-2.7-1.9-9.6-1-9.4-4.2
						C195.3,227.8,199.8,228,200.2,228.1z"/>
				</g>
				<g>
					<path class="st23" d="M310.5,221.8c4.1-3,9.1-4.5,14-2.8c2.9,4,3.7,5.1,3.8,10.5c9.8-8.5,6.5-27.4-1-37c8.1,4,7.9,17,9.1,24.4
						c-1.5,3.3-1.8,6.2-3.5,9.4c-14.5,12.2-8.6,44.6-4.9,61.8c0.9,4.3,2.2,7.7,3.5,11.9c2.5,7.8,4.7,16.2,9.8,23
						c-12.3,10.7-24.3,23.8-38.4,32.1c-2.7,1.6-6.2,2.5-9.1,4.2c-3.8,2.2-8.8,3.4-12.6,5.6c-2.4-0.2-10.8-9.4-14-12.9
						c-9.9-11.2-19.5-23.4-23.7-38.1c1.6-1.2,11.2-14.6,14-18.2c29.5-23.6,35.3-51.4,27.2-87.7c-0.6-0.9-2.3-1.3-3.5-1.7
						c2.5,0.6,0.5-6,0-7.7c-3-10.9-15.7-22.9-17.5-51c5.8,2,11.6,4,17.5,5.9c-1.5,21.6,3.5,23.4,20.3,33.5
						c-3.4,16.9-0.3,26.1,3.5,41.9C306.7,225.8,307.4,224.1,310.5,221.8z"/>
					<path class="st24" d="M306.7,239.9c3.4-2.8,13.3,22-6.6,52c-10.8,16.2-30.5,34.2-51.3,26.9c0-0.7,0-0.7,0-1.4
						C320.9,282.7,302.7,243.2,306.7,239.9z"/>
				</g>
				<path class="st19" d="M267.2,215.5c-5.8,1-18.1,7.4-31.4,3.5c-4-6.1,5.8-10.9,10.5-12.6C254.3,205.2,261,211.1,267.2,215.5z"/>
				<g>
					<path class="st20" d="M220.4,204.3c0,0.1,1.5,0.7,2.1,2.1c2.5,6,5.9,10.5,10.8,14.7c0.8-1.1-0.4-2.1,1.7-2.1
						c-0.2,4.1,3.1,5.5,5.6,7.7c0.2,0.2-0.3,2,3.1,3.5c11.5,5.1,25-5.6,32.8-13.3c0.5,0.5,0.5,0.5,1,1c1.3,14.8-2.4,27.5-15.4,35.6
						c8.4,12.6-0.5,29.3-4.9,42.3c-2.7,3.5-12.4,17-14,18.2c-1.3,0.9-8.5,3.7-10.8,4.2c0,0.7,0,0.7,0,1.4c0.8,0.1,1.8-0.2,2.4,0
						c0,1.1-0.9,0.6-1.4,0.7c-2.7,0.4-5.1-0.2-7.7-0.7c-1.1-0.2-2.4,0.1-3.5,0c-4.9-3.5-4.9-3.5-9.8-7c0.7-1.1,1.6-0.5,1.4-1.7
						c-4.4-3.5-6.2-10.2-9.1-14.7c-7.4-11.4-21.4-23.7-25.1-41.6c11-4.2,11-4.2,22-8.4c0,4.3-0.6,9,0.3,13.3
						c3.7,16.3,35.2,10.8,33.9-7c-4.5,5.6-13.2,9.1-19.6,4.9c-3.8,2.8-4.6,4-9.4,4.2c0.3-10.1,1.3-21.2,3.5-31.1
						c2.1-9.3,6.7-17.8,8.4-27.2C219.7,203.8,219.7,203.8,220.4,204.3z"/>
					<path class="st24" d="M248.4,279c-3.8-0.9-9,1.6-10.5-2.1c8.9-2,18.9-9.5,19.9-9.1C264.9,270.7,249.9,277.8,248.4,279z"/>
					<path class="st29" d="M233.7,320.2c-2.2,0.6-7.4,2-7.7-0.7C228.6,320,231,320.6,233.7,320.2z"/>
					<g>
						<path class="st30" d="M237.9,276.9c1.5,3.7,6.6,1.2,10.5,2.1c-31.4,24.6-29.8,17.1-52-7.7C208.5,278.2,224.1,280,237.9,276.9z
							"/>
						<path class="st12" d="M234,280.4c3.5,0.6-8.8,8.2-16.8,5.6C204.2,278.2,220.2,286,234,280.4z"/>
					</g>
				</g>
			</g>
			<g>
				<g>
					<path class="st23" d="M137.3,527.7c8.6,0.7,17.1,2.5,25.8,2.1c0.1,4.6,0.1,7.6-2.8,12.2c2.4,1.6,0.7,2.3,0.7,2.4
						c-5.4-1.7-11.3-4.4-16.8-5.6c-1.2-0.3-2.7-2-5.6-1.4c-18,1.7-18,1.7-36,3.5c-0.9,0.9-0.9,0.9-1.7,1.7
						c-0.1,3.8-1.6,7.3-2.8,10.8c-0.8,2.3-2,4.5-2.1,7c-0.5-0.3-0.5-0.3-1-0.7c-11.2,17-27.5,18.3-28.3,19.9c-0.7,1.3,4,7.6,3.1,8
						c-8.7-2.1-8.7-2.1-17.5-4.2c-2.9,0.7,11.1,26,12.9,29c9.1,15.1,21.3,28.5,31.4,43c-30.9,21.1-52-21.3-58-46.1
						c-5.1-21.3-3.9-40.5-2.1-62.2c2.1,2.1,2.2,5,4.9,8.4c-0.4,15.6,10,12.9,22,7.7c11.6-5,24.4-18.1,24.4-31.4
						c4.6-1.6,8.8-3.3,13.6-4.2C114,525.3,124.8,526.7,137.3,527.7z"/>
					<path class="st24" d="M96.1,560.5c12.2,10.4,27.3,16.3,41.9,22.4c0,1.6,0,3.3,0,4.9c-3.4-2.2-9.3,16.2-14,26.5
						c-6.9,15.2-12.7,31.3-27.2,41.2c-10.1-14.4-22.3-27.8-31.4-43c-1.8-3-15.8-28.3-12.9-29c8.7,2.1,8.7,2.1,17.5,4.2
						c0.8-0.5-3.8-6.7-3.1-8c0.8-1.6,17.1-2.9,28.3-19.9C95.6,560.2,95.6,560.2,96.1,560.5z"/>
				</g>
				<path class="st24" d="M286.8,530.5c0.3,0.2,2.6,2.2,5.6,4.2c2.1,1.4,4.2,2.8,6.3,4.2c-0.1,2.1,2.6,2.6,2.8,4.5
					c0.7,7.4-27.6,42.1-34.9,48.5c-7.6-6.2-14.8-12.8-22-19.6c-3-0.3-3-0.3-5.9-0.7c-9.8-17,13.3-40.3,20.3-58.7
					C267.8,519.3,277.6,524.5,286.8,530.5z"/>
				<g>
					<path class="st24" d="M379,570.3c3.7,0.7,7.5,1.3,11.2,2.1c20.6,0.1,41-0.7,61.5,1.4c12.2,1.3,24.3,4,36.3,6.3
						c1,1.8,0.3,4.9,0,7c-3.4,23.7-4.2,47.7-16.8,69.5s-26.7,22.4-49.9,19.2c-3.2-0.4-16.3-3.3-19.9-4.2c-2.7-0.7-11.2-4.2-15.4-5.6
						c-6.4-2.2-13.5-4.2-19.6-7c-6.5-3-26.2-15.3-34.2-20.3c-15.1-9.2-34.9-22.2-48.9-32.8c-5.8-4.4-11.1-9.4-16.8-14
						c7.4-6.5,35.6-41.2,34.9-48.5c-0.2-2-2.9-2.4-2.8-4.5c3,2,3.8,4.8,7.3,7C325.5,553.9,359.3,566.7,379,570.3z"/>
					<path class="st24" d="M434.5,578c2.6-0.8,19.9,5.2,23.7,7c0.1,3.6,7.8,23.1-0.7,20.3c-1.6-0.5-22.8-23.2-23.4-24.8
						C433.7,579.3,433.2,578.8,434.5,578z"/>
				</g>
				<path class="st23" d="M237.9,494.2c6.7,7.3-0.3,4,21,18.9c-6.9,18.4-30.1,41.7-20.3,58.7c-22.8-0.7-62.2-1.5-75.4-23.7
					c13.5-0.2,26.6,6.2,42.3,4.2c14.7-1.9,37.2-21.9,31.8-38.1c-1.1-3.3-21.3-27.4-25.1-33.2c-2.5-3.7-4.2-7.9-6.3-11.9
					C222.8,474.7,226.3,481.6,237.9,494.2z"/>
				<path class="st22" d="M131,476.7c0.5,0,1.3,2.2,9.1,1.4c-1.7,1.8,2,1.7,3.5,4.2c-5,1.2-14.8-1.2-12.6,8.4
					c-10.5-1.8-20.8-4.6-31.4-5.6c0-0.2-1.2-2.4-1.4-2.8c1-6.9,9.1-12.1,7.7-18.9c0.6,0.2,1.7-0.3,2.1,0.3c0.5,6.5,0.5,6.5,1,12.9
					C116.3,477.2,123.7,476.7,131,476.7z"/>
				<path class="st20" d="M143.6,482.3c-1.4-2.5-5.2-2.4-3.5-4.2c12.3-4,24.1-9.4,35.6-15.4c0.6,2.2,3,10.4,1.7,11.9
					C176.3,475.9,147.9,481.3,143.6,482.3z"/>
				<path class="st20" d="M84.9,464.1c0,2.5,2.9,7.1,2.1,9.4c-0.6,1.6-25.6,12.7-28.6,17.1c-7.5,10.6,10.8,6.4,16.1,6.3
					c-0.5,1.7,4.2,5.6,4.2,5.9c-0.1,0.6-9,6.5-8.4,8.4c1.7,2,4.8,0.5,8.4,1c19.1,2.7,38.7,4.1,58,4.2c0.1,0.1,1.7,1.2,2.1,1.4
					c-0.3,0.3-0.3,0.3-0.7,0.7c-2.2-1.3-44.5-2.6-51.3-3.5c-1.3,0.6-1.1,5.9-1.7,8.4c-17.1,2.2-32,11.3-47.5,18.2
					c0.4-3.9,1.9-7.7,2.8-11.5c1.1-10.3,2.7-42.3,4.9-48.9c2.6-8.1,10.9-11.3,18.2-13.6C68.8,465.9,78.9,464.7,84.9,464.1z"/>
				<path class="st20" d="M84.9,523.5c-0.2,0.6,0.1,1.4,0,2.1c-2.1,0.9-2.1,0.9-4.2,1.7c5.6,17.7-25.5,45.4-39.1,28.3
					c-2.7-3.3-2.8-6.3-4.9-8.4c0-1.9,0.5-3.7,0.7-5.6C52.9,534.9,67.8,525.7,84.9,523.5z"/>
				<path class="st23" d="M163.1,548c-0.6-1.1-1.8-2.2-2.1-3.5c0-0.1,1.7-0.8-0.7-2.4c2.9-4.6,2.9-7.6,2.8-12.2
					c0-2.1-0.2-2.9-0.7-4.9c-0.4-1.7-1.5-7.6-2.4-8.4c-8-1.4-15.4-5.1-23.4-6.3c-8.3-1.3-38.8-2.4-46.8-1.4c3.4-2.1,3.2-6.6,3.8-7
					c2.4-1.3,39.3,1.7,45.8,2.1c7.4,0.5,16.1,4.2,22.4-0.7c0.2-0.2,1.5,0.4,1.4-0.7c0.7,0.7,6.1,2.8,6.6,2.8
					c2.4-0.2,38.5-19.9,42.3-24.4c3.8,5.8,24.1,29.9,25.1,33.2c5.4,16.1-17.1,36.1-31.8,38.1C189.7,554.2,176.6,547.7,163.1,548z"/>
				<path class="st25" d="M138,518.6c1.6,1,2.3,6.3,2.1,6.6c-0.5,0.9-3.5-0.9-2.8,2.4c-12.5-1-23.3-2.4-35.6,0
					c8-4.1-12.6-1.2-16.8-2.1c0.1-0.7-0.2-1.5,0-2.1c0.6-2.5,0.4-7.8,1.7-8.4C93.5,516,135.8,517.3,138,518.6z"/>
				<path class="st27" d="M101.7,527.7c-4.9,0.9-9,2.6-13.6,4.2c0,13.3-12.8,26.4-24.4,31.4c-12,5.2-22.4,7.9-22-7.7
					c13.6,17.1,44.7-10.5,39.1-28.3c2.1-0.9,2.1-0.9,4.2-1.7C89.1,526.5,109.7,523.6,101.7,527.7z"/>
				<path class="st27" d="M162.4,524.9c0.5,2,0.7,2.8,0.7,4.9c-8.7,0.4-17.2-1.4-25.8-2.1c-0.7-3.3,2.3-1.5,2.8-2.4
					c0.2-0.3-0.5-5.7-2.1-6.6c0.3-0.3,0.3-0.3,0.7-0.7C139.8,518.5,157.6,523.2,162.4,524.9z"/>
				<path class="st25" d="M105.9,463.4c1.4,6.7-6.7,12-7.7,18.9c-2-4-1.4-4.3-9.1-0.7c-0.5-1.7-7.4-0.1-10.1,0.7
					c-6.9,2.1-13.4,7.1-20.6,8.4c3.1-4.4,28.1-15.5,28.6-17.1c0.8-2.3-2.1-6.9-2.1-9.4C90.5,463.6,100.7,462.2,105.9,463.4z"/>
				<path class="st31" d="M131,490.7c9.1,1.6,18.3,2.9,27.6,3.5c2.8,1.3,2.9,6.8,4.5,8.4c0.1,1.1-1.2,0.5-1.4,0.7
					c-4.7-2-9.7-3.1-14.7-4.2c-15.8-3.5-31.6-6.2-47.5-9.1c-0.2-1.5,0.3-3.8,0-4.9C110.2,486.1,120.5,488.9,131,490.7z"/>
				<g>
					<path class="st27" d="M205.7,469c2.1,3.9,3.8,8.1,6.3,11.9c-3.8,4.6-39.8,24.3-42.3,24.4c-0.5,0-6-2.1-6.6-2.8
						c-1.6-1.6-1.7-7-4.5-8.4c-9.3-0.6-18.4-1.9-27.6-3.5c-2.2-9.6,7.6-7.2,12.6-8.4c4.3-1,32.8-6.4,33.9-7.7
						c1.2-1.5-1.2-9.7-1.7-11.9c1.6-0.3,1.6-0.3,3.1-0.7C187.6,464.9,197.1,466.1,205.7,469z"/>
					<path class="st24" d="M181,473.9c14.2,13.8,12.7,9.5-10.1,7.3C168.9,478.5,178.5,480.9,181,473.9z"/>
				</g>
				<path class="st27" d="M140.8,500.5c-0.7,1.7-0.7,1.7-1.4,3.5c-6.5-0.4-43.3-3.4-45.8-2.1c-0.6,0.3-0.4,4.9-3.8,7
					c-3.6,0.5-7.9,1.9-11.2,3.5c-3.6-0.5-6.7,1-8.4-1c-0.6-1.9,8.3-7.8,8.4-8.4c0-0.4-4.7-4.2-4.2-5.9c6.2-0.1,12.7,0.7,18.9-0.7
					C108.9,499.4,124.9,500.2,140.8,500.5z"/>
				<path class="st23" d="M89.1,481.6c-11.2,5.3-6,5.4,2.1,7c-0.2,3.3-0.1,5.2,2.1,7.7c-6.2,1.4-12.6,0.6-18.9,0.7
					c-5.3,0.1-23.5,4.3-16.1-6.3c7.2-1.3,13.7-6.3,20.6-8.4C81.7,481.5,88.6,479.9,89.1,481.6z"/>
				<g>
					<path class="st32" d="M98.2,482.3c0.2,0.4,1.4,2.6,1.4,2.8c0.3,1.1-0.2,3.4,0,4.9c-2.8-0.5-5.6-0.8-8.4-1.4
						c-8-1.6-13.3-1.7-2.1-7C96.8,478,96.1,478.3,98.2,482.3z"/>
					<path class="st33" d="M136.6,510.2c-1.1,1.8-1.1,4.5,0,6.3c-19.3-0.1-38.9-1.5-58-4.2c3.3-1.6,7.6-3,11.2-3.5
						C97.8,507.8,128.3,509,136.6,510.2z"/>
				</g>
				<path class="st24" d="M162.4,524.9c-4.9-1.7-22.6-6.4-23.7-7c-0.4-0.2-2-1.3-2.1-1.4c-1.1-1.8-1.1-4.4,0-6.3
					c8,1.2,15.4,4.9,23.4,6.3C160.9,517.3,162,523.2,162.4,524.9z"/>
				<path class="st27" d="M161.7,503.3c-6.3,4.9-14.9,1.2-22.4,0.7c0.7-1.7,0.7-1.7,1.4-3.5c0.5,0,5.4,2.4,6.3-1.4
					C152,500.2,157,501.2,161.7,503.3z"/>
				<path class="st22" d="M99.6,490c15.9,2.9,31.7,5.6,47.5,9.1c-0.9,3.8-5.8,1.4-6.3,1.4c-15.9-0.2-31.9-1-47.5-4.2
					c-2.2-2.5-2.3-4.4-2.1-7.7C93.9,489.1,96.8,489.5,99.6,490z"/>
			</g>
		</g>
	</g>
</g>
</svg>
